<svg xmlns="http://www.w3.org/2000/svg" viewBox="0 0 935.18 943.52"><defs><style>.a{fill:#fff;}</style></defs><path class="a" d="M68.6,298.91q-24.19,0-24.19-22.85V195.44q0-34.26,16.29-52.07t46.86-17.8q41.66,0,56.44,29.9,14.77-29.9,56.44-29.9,30.56,0,46.86,17.8t16.29,52.07v80.62q0,22.86-24.19,22.85t-24.18-22.85V198.13q0-17.13-5.71-24.69t-17.81-7.56q-24.18,0-24.18,32.25v76.59q0,22.84-23.52,22.84t-23.51-22.84V198.13q0-32.25-24.19-32.25-23.52,0-23.52,32.25v77.93Q92.78,298.92,68.6,298.91Z" transform="translate(-44.41 -40.24)"/><path class="a" d="M343.72,96.68q-12.44,0-20.83-8.06A26.39,26.39,0,0,1,314.5,68.8q0-12.44,8.39-20.49t20.83-8.07q12.76,0,21,8.07T373,68.8a26.69,26.69,0,0,1-8.23,19.82Q356.49,96.67,343.72,96.68ZM367.91,276.4q0,22.52-23.52,22.51-11.42,0-18.14-5.55t-6.71-17v-128q0-10.74,5.54-16.79t18.64-6.05q13.11,0,18.65,6.05t5.54,16.79Z" transform="translate(-44.41 -40.24)"/><path class="a" d="M428,298.91q-24.19,0-24.19-22.85V195.44q0-32.25,20.66-51.06t54.59-18.81q33.91,0,54.59,18.81t20.66,51.06v80.62q0,22.86-24.19,22.85T506,276.06V198.13q0-15.8-7.05-24t-19.82-8.23q-12.78,0-19.82,8.23t-7.06,24v77.93Q452.22,298.92,428,298.91Z" transform="translate(-44.41 -40.24)"/><path class="a" d="M614.47,96.68q-12.42,0-20.82-8.06a26.4,26.4,0,0,1-8.4-19.82q0-12.44,8.4-20.49t20.82-8.07q12.76,0,21,8.07T643.7,68.8a26.69,26.69,0,0,1-8.23,19.82Q627.24,96.67,614.47,96.68ZM638.66,276.4q0,22.52-23.51,22.51-11.43,0-18.14-5.55t-6.72-17v-128q0-10.74,5.54-16.79t18.64-6.05q13.11,0,18.65,6.05t5.54,16.79Z" transform="translate(-44.41 -40.24)"/><path class="a" d="M109.57,615.21q0,29.77-31.1,29.77-15.12,0-24-7.55t-8.89-22.22V425.48q0-49.77,26.22-74.87t88-25.11q45.76,0,71.76,24.44t26,78.65q0,47.1-24.67,72t-69.54,24.88q-25.32,0-36.65,3.78T112.46,543q-2.89,10-2.89,29.11Zm-4-128.41q5.34-4.44,10.22-7.78a40.09,40.09,0,0,1,13.11-5.33q8.22-2,22-2,19.11,0,30.22-3.33t15.77-12.67q4.67-9.33,4.67-27.1,0-23.55-5.56-34.44t-15.55-14.22q-10-3.33-24.22-3.33-25.77,0-36.21,9.33t-10.44,32.44q0,16.44-.89,36A269.7,269.7,0,0,1,105.57,486.8Z" transform="translate(-44.41 -40.24)"/><path class="a" d="M331.74,641.43q-32,0-32-34.66V360.16q0-34.67,32-34.66t32,34.66V557.44q0,7.13-1.11,18t-2.44,18q11.55-13.77,28.44-13.78h65.31q16.44,0,25.33,8t8.89,23.11q0,30.65-34.22,30.66Z" transform="translate(-44.41 -40.24)"/><path class="a" d="M576.13,615.21Q576.13,645,545,645q-15.12,0-24-7.55t-8.89-22.22v-176q0-61.32,24.89-87.53t77.76-26.22q54.19,0,80,26.66t25.77,87.09v176q0,29.77-31.1,29.77-15.12,0-24-7.55t-8.89-22.22V508.12A93.62,93.62,0,0,1,638.11,521q-10,5.32-23.32,5.33-19.56,0-29.11,7.11t-9.55,25.33ZM573.46,485a50.28,50.28,0,0,1,17.11-11.11q10-4,24.22-4,16.88,0,26-2.67T653.44,457q3.55-7.54,3.56-22.21,0-32.88-9.33-45.1t-33.33-12.22q-22.22,0-30.44,12.66t-8.21,46.44q0,17.32-.45,29.32A136,136,0,0,1,573.46,485Z" transform="translate(-44.41 -40.24)"/><path class="a" d="M871.17,645q-32.89,0-32.88-29.77V526.79L745.87,375.27q-8-13.77-6-24.89a29.44,29.44,0,0,1,10.22-18A28.56,28.56,0,0,1,769,325.5q14.67,0,23.33,8.89t19.77,30.21L872.5,473.47q17.78-16.44,28-27.78t14.66-21.55a56.25,56.25,0,0,0,4.44-22.66,160.48,160.48,0,0,0-2.66-27.55q-2.67-15.09-2.67-22.21,0-11.12,9.33-18.67t22.66-7.55q16,0,24.66,15.77t8.67,46a163.82,163.82,0,0,1-6.44,46.66q-6.45,21.78-23.11,44t-47.77,48.43v88.87q0,15.1-7.33,22.44T871.17,645Z" transform="translate(-44.41 -40.24)"/><path class="a" d="M445.26,706.07a65.14,65.14,0,0,1-4.81-5.22,11.5,11.5,0,0,1-1.92-3.17,2.49,2.49,0,0,1-.14-1.78,4.36,4.36,0,0,1,.82-1.1,55.92,55.92,0,0,1,15.12-11.68,143,143,0,0,1,21.58-9.62q12-4.26,25.42-7.76T527.85,660q13-2.25,25-3.38t20.76-1.12l12.09-20.62q8,4.08,8.79,5.57a2.68,2.68,0,0,1,.28,2.57,37.59,37.59,0,0,1-3.16,6.38q-2.07,3.39-4.26,7.19a96.34,96.34,0,0,1,18,4,85.68,85.68,0,0,1,16.9,7.58q16.77,10.2,23.23,21.36t5.08,22.61a51,51,0,0,1-8.79,22.46,107,107,0,0,1-18.42,20.66,166.1,166.1,0,0,1-24.05,17.46,163.81,163.81,0,0,1-25.14,12.5,295.33,295.33,0,0,1-37.25,12.1,259.12,259.12,0,0,1-28.72,5.77L502,815.46c-2.3,4.58-4.67,9.3-7.15,14.15s-4.9,9.62-7.28,14.29-56,108.05-57.85,111.71c0,.19-.19.46-.55.83a2.44,2.44,0,0,1-1.79.55,11.81,11.81,0,0,1-3.57-.83,27.58,27.58,0,0,1-6.19-3.57l76.27-148.4q-6.33.55-14.43.69A61.76,61.76,0,0,1,464,803.23a29.33,29.33,0,0,1-12.64-6.33q-5.22-4.53-5.5-13.6a13.52,13.52,0,0,1,3.85-10,38.44,38.44,0,0,1,10.58-8A73.93,73.93,0,0,1,475,759.53q8.24-2.34,16.21-3.85t14.71-2.2q6.72-.69,10.85-.69h3.85q11-21.43,22.54-43t24.18-42.19q-35.73,2.74-65.55,11.82A216.18,216.18,0,0,0,445.26,706.07Zm29.14,66.24q-9.07,3.84-12.92,7.42t-2.75,6.46c.73,1.92,2.88,3.53,6.46,4.81s8.38,2,14.43,2.19a118.06,118.06,0,0,0,20.89-1.37q3.3-6.6,6.87-13.47c2.38-4.57,4.85-9.07,7.42-13.46a119.82,119.82,0,0,0-20.48,1.78A99.25,99.25,0,0,0,474.4,772.31Zm96.74.82A206.31,206.31,0,0,0,593,761.31a156.6,156.6,0,0,0,20.48-15,100.89,100.89,0,0,0,15.8-17,40,40,0,0,0,7.7-18,27.06,27.06,0,0,0-3.85-17.73q-5.08-8.65-18.55-16.35A55.77,55.77,0,0,0,598.35,671a152.74,152.74,0,0,0-17.86-2.61q-11,22-23,43t-23.78,41.91l5,.55,1.92,11.55L528,764.89a31.38,31.38,0,0,1-1.92,4.53c-1.1,2.29-2.39,4.72-3.85,7.28L518,784.13q-2.07,3.57-2.89,5.22a161.72,161.72,0,0,0,23.78-4.54A193.89,193.89,0,0,0,571.14,773.13Z" transform="translate(-44.41 -40.24)"/><path class="a" d="M669.63,823q-5.5,12.1-4.67,18.55t5.22,8.66q4.4,2.21,11,1.24a46.83,46.83,0,0,0,12.65-3.71,161.59,161.59,0,0,0,21.43-12.23q9.9-6.74,20.07-13.88a52.33,52.33,0,0,1,1.78,7,27.22,27.22,0,0,1,.42,4,4,4,0,0,1-.42,2.06,2.33,2.33,0,0,1-1,1,156.91,156.91,0,0,1-13.6,10.17A192.79,192.79,0,0,1,705.77,856a134.2,134.2,0,0,1-16.76,7.7q-8.12,3-13.33,3c-.74,0-2.75-.14-6-.41a17.16,17.16,0,0,1-9.48-4.12q-4.54-3.72-6.46-12.37t2.75-25.15q-5,4.95-11.68,11.41T630.6,848.81q-7.43,6.32-14.84,11.81a118.12,118.12,0,0,1-13.47,8.8q-4.66,1.38-7.56-.41a12.57,12.57,0,0,1-4.39-4.4,15.21,15.21,0,0,1-1.93-5.5,10.73,10.73,0,0,1-.14-3.71q1.93-8.79,8.8-19.51A118.61,118.61,0,0,1,613.15,816a111,111,0,0,1,19-15.39q9.75-6.18,17.45-6.18a78.73,78.73,0,0,1,8,.41,14.62,14.62,0,0,1,7.42,2.88l9.34-10.44a35.27,35.27,0,0,1,5.36,2.38,7.51,7.51,0,0,1,2.47,2.12,2.6,2.6,0,0,1,.55,1.85,11.32,11.32,0,0,1-.41,1.62,87.16,87.16,0,0,1-5.36,13.06Q673.21,815.83,669.63,823Zm-70.36,34.91q18.69-14,32.15-26.39t25.29-24.74l-3.3-.27a33.45,33.45,0,0,0-15,4.26A66.46,66.46,0,0,0,625,820.5,96.71,96.71,0,0,0,613.7,833a119.4,119.4,0,0,0-8.39,12.51Q600.38,854,599.27,857.88Z" transform="translate(-44.41 -40.24)"/><path class="a" d="M820.24,824.35a1,1,0,0,1,1.52-.28,4.4,4.4,0,0,1,1.65,2.06,13.18,13.18,0,0,1,1,3.3,4.61,4.61,0,0,1-.55,3.16,20.26,20.26,0,0,1-5.77,6,28.76,28.76,0,0,1-8.11,3.84,35.07,35.07,0,0,1-9.21,1.52,30.22,30.22,0,0,1-8.79-1,15.81,15.81,0,0,1-8.39-5.77q-3.43-4.39-3.43-14c-.37-4-1.2-6.41-2.48-7.14s-2.88-.55-4.81.55a29,29,0,0,0-6.18,5.08,79.62,79.62,0,0,1-6.6,6.19,271,271,0,0,0-22.67,23.22q-10.86,12.51-18.83,23.23a4.49,4.49,0,0,1-4.12,2.33,7.45,7.45,0,0,1-4.26-1.51,8.85,8.85,0,0,1-2.75-3.57,4,4,0,0,1,.41-4.12q11.28-20.34,22.4-39.31t22.68-39.58a33.54,33.54,0,0,1,6.46,3,15,15,0,0,1,2.88,2.33c.55.65.78,1.15.69,1.52a1.8,1.8,0,0,1-.41.82q-4.68,7.43-8.66,14.84T745.49,826q4.93-4.66,11.81-11a61.72,61.72,0,0,1,14-9.9,17.64,17.64,0,0,1,8.25-1.64,11.61,11.61,0,0,1,6.59,2.47,13.32,13.32,0,0,1,4.13,5.91,19.75,19.75,0,0,1,1.1,8.11q-.28,6,2.88,8.66a12.5,12.5,0,0,0,7.84,2.74,25.25,25.25,0,0,0,9.75-1.78A23.32,23.32,0,0,0,820.24,824.35Z" transform="translate(-44.41 -40.24)"/><path class="a" d="M919.74,752.33c1.83.55,2.88,1.47,3.16,2.75a6.28,6.28,0,0,1-.42,3.85,12.69,12.69,0,0,1-2.33,3.57q-1.51,1.65-2.61,1.65a243.33,243.33,0,0,0-25.7-.82q-12.78.27-25.15.82-10.17,15.68-20.75,34t-20.61,37.51q-10,19.25-19.25,38.48t-16.62,36.56a15.12,15.12,0,0,1-1.65,2.2c-.92,1.1-2.38,1.47-4.4,1.1q-6.87-1.92-5.22-7.15,6.87-16.49,15.66-35t18.42-37.38q9.63-18.82,19.93-36.56t19.92-32.57q-10.17.56-21.3,2.2T809,771.16q-10.72,2.05-20.34,4.12t-16.76,3.44q-.55,0-1.38-1.65a28.87,28.87,0,0,1-1.51-3.71,12.78,12.78,0,0,1-.69-4,2.37,2.37,0,0,1,1.38-2.48q22.82-4.95,44.66-8.52T859,752.61q4.95-7.14,10.45-16.22a99.63,99.63,0,0,1,11.82-15.94c.55-.73,1.51-.91,2.88-.55a7.92,7.92,0,0,1,3.58,2.06,7,7,0,0,1,1.92,3.71c.27,1.47-.32,3-1.79,4.68q-3,4.39-4.53,6.46t-2.75,4c-.83,1.29-1.74,2.71-2.75,4.26s-2.43,3.9-4.26,7q11.27-.55,23.23-1A125.78,125.78,0,0,1,919.74,752.33Z" transform="translate(-44.41 -40.24)"/><path class="a" d="M971.68,824.62a1.94,1.94,0,0,1,3,.14,7.56,7.56,0,0,1,1.79,4,16.31,16.31,0,0,1,0,5.22,5,5,0,0,1-2.34,3.85q-12.92,8.52-24.46,16.77t-22.54,16.76q-11,8.53-21.71,17.73T883.73,909a156.07,156.07,0,0,0-15.81,18.14q-8.1,10.71-16.49,21.44t-17.17,20.06a67.48,67.48,0,0,1-17.87,14q-3.3,1.65-5.63.82a7.85,7.85,0,0,1-3.71-2.61,8,8,0,0,1-1.65-4,4.51,4.51,0,0,1,.55-3.3,205.84,205.84,0,0,1,15-18.42q8.94-9.88,18.56-19.65t19.1-18.83q9.48-9.06,16.63-15.94a103.87,103.87,0,0,0,12.37-13.6,179.8,179.8,0,0,0,10.85-15.94q5.09-8.38,9.62-17.18t9.21-17q2.21-3.86,4.67-7.56a18.45,18.45,0,0,0,2.89-5.77c.27-1.38-.37-1.83-1.93-1.38s-4.72,2.34-9.48,5.64q-6.31,4.68-14,9.89t-14.85,9.9a131.09,131.09,0,0,1-13.19,7.69q-6,3-9.07,3-6.6,0-7.69-3.85a19.82,19.82,0,0,1,0-9.35,118.71,118.71,0,0,1,5.49-16.76,66.43,66.43,0,0,1,8.8-15.12c.36-.55,1.19-.5,2.47.14a23.19,23.19,0,0,1,3.71,2.33q1.78,1.38,3.3,2.75c1,.92,1.42,1.47,1.24,1.65a51.1,51.1,0,0,0-7.15,10.45A70.24,70.24,0,0,0,866.69,845q6.87-4.12,14.15-8.93t14.71-9.9q7.41-5.08,14.7-10t13.88-9.35a6.41,6.41,0,0,1,4.12-.41,11.27,11.27,0,0,1,5.23,2.34,12.41,12.41,0,0,1,3.84,5.5q1.38,3.57-.27,8.79a62.92,62.92,0,0,1-4.4,11.82q-3,6.33-6.73,12.5t-7.29,11.82q-3.57,5.64-6,9.49,7.7-6,15-11.55T942,846.47q7.14-5.09,14.43-10.44T971.68,824.62Z" transform="translate(-44.41 -40.24)"/></svg>